<svg width="20" height="20" viewBox="0 0 20 20" fill="none" xmlns="http://www.w3.org/2000/svg">
<rect width="20" height="20" rx="6" fill="#0094FF"/>
<g clip-path="url(#clip0_1396_4976)">
<path d="M13.5 8.50001H12.72C12.885 8.22501 12.985 7.91001 12.995 7.57001C13.015 7.05501 12.78 6.57501 12.415 6.21501C11.645 5.44501 11.045 5.43501 10.505 5.57001C10.1 5.22501 9.58 5.01001 9 5.01001C8.055 5.01001 7.245 5.56501 6.865 6.36501C6.075 6.63001 5.5 7.37001 5.5 8.25001C5.5 9.18001 6.14 9.95501 7 10.18V13.5C7 14.05 7.45 14.5 8 14.5H11.5C12.05 14.5 12.5 14.05 12.5 13.5H13.5C14.05 13.5 14.5 13.05 14.5 12.5V9.50001C14.5 8.95001 14.05 8.50001 13.5 8.50001ZM7.5 9.25001C6.95 9.25001 6.5 8.80001 6.5 8.25001C6.5 7.82501 6.775 7.45001 7.185 7.31001L7.585 7.17501L7.765 6.79501C8 6.31001 8.47 6.01001 9 6.01001C9.395 6.01001 9.695 6.18501 9.87 6.33501L10.26 6.66001C10.26 6.66001 10.58 6.50001 10.995 6.50001C11.545 6.50001 11.995 6.95001 11.995 7.50001H10.495C8.835 7.50001 8.575 9.25001 7.5 9.25001ZM13.5 12.5H12.5V9.50001H13.5V12.5Z" fill="white"/>
</g>
<defs>
<clipPath id="clip0_1396_4976">
<rect width="12" height="12" fill="white" transform="translate(4 4)"/>
</clipPath>
</defs>
</svg>
