<svg width="59" height="65" viewBox="0 0 59 65" fill="none" xmlns="http://www.w3.org/2000/svg">
<g filter="url(#filter0_dd_1396_5042)">
<path fill-rule="evenodd" clip-rule="evenodd" d="M13.4082 5C10.9736 5 9 6.97361 9 9.40817V41.7347C9 44.1693 10.9736 46.1429 13.4082 46.1429H25.6125L27.6626 49.6939C28.511 51.1633 30.6319 51.1633 31.4802 49.6939L33.5304 46.1429H45.7347C48.1693 46.1429 50.1429 44.1693 50.1429 41.7347V9.40816C50.1429 6.9736 48.1692 5 45.7347 5H13.4082Z" fill="#0094FF"/>
<g clip-path="url(#clip0_1396_5042)">
<path d="M39.5714 21.2857H37.3428C37.8143 20.5 38.1 19.6 38.1286 18.6286C38.1857 17.1571 37.5143 15.7857 36.4714 14.7571C34.2714 12.5571 32.5571 12.5286 31.0143 12.9143C29.8571 11.9286 28.3714 11.3143 26.7143 11.3143C24.0143 11.3143 21.7 12.9 20.6143 15.1857C18.3571 15.9428 16.7143 18.0571 16.7143 20.5714C16.7143 23.2286 18.5429 25.4428 21 26.0857V35.5714C21 37.1428 22.2857 38.4286 23.8571 38.4286H33.8571C35.4286 38.4286 36.7143 37.1428 36.7143 35.5714H39.5714C41.1428 35.5714 42.4286 34.2857 42.4286 32.7143V24.1428C42.4286 22.5714 41.1428 21.2857 39.5714 21.2857ZM22.4286 23.4286C20.8571 23.4286 19.5714 22.1428 19.5714 20.5714C19.5714 19.3571 20.3571 18.2857 21.5286 17.8857L22.6714 17.5L23.1857 16.4143C23.8571 15.0286 25.2 14.1714 26.7143 14.1714C27.8428 14.1714 28.7 14.6714 29.2 15.1L30.3143 16.0286C30.3143 16.0286 31.2286 15.5714 32.4143 15.5714C33.9857 15.5714 35.2714 16.8571 35.2714 18.4286H30.9857C26.2428 18.4286 25.5 23.4286 22.4286 23.4286ZM39.5714 32.7143H36.7143V24.1428H39.5714V32.7143Z" fill="white"/>
</g>
</g>
<defs>
<filter id="filter0_dd_1396_5042" x="0.183673" y="0.591836" width="58.7755" height="65.6327" filterUnits="userSpaceOnUse" color-interpolation-filters="sRGB">
<feFlood flood-opacity="0" result="BackgroundImageFix"/>
<feColorMatrix in="SourceAlpha" type="matrix" values="0 0 0 0 0 0 0 0 0 0 0 0 0 0 0 0 0 0 127 0" result="hardAlpha"/>
<feOffset dy="4.40816"/>
<feGaussianBlur stdDeviation="4.40816"/>
<feColorMatrix type="matrix" values="0 0 0 0 0 0 0 0 0 0 0 0 0 0 0 0 0 0 0.24 0"/>
<feBlend mode="normal" in2="BackgroundImageFix" result="effect1_dropShadow_1396_5042"/>
<feColorMatrix in="SourceAlpha" type="matrix" values="0 0 0 0 0 0 0 0 0 0 0 0 0 0 0 0 0 0 127 0" result="hardAlpha"/>
<feOffset dy="4.40816"/>
<feGaussianBlur stdDeviation="4.40816"/>
<feColorMatrix type="matrix" values="0 0 0 0 0 0 0 0 0 0 0 0 0 0 0 0 0 0 0.04 0"/>
<feBlend mode="normal" in2="effect1_dropShadow_1396_5042" result="effect2_dropShadow_1396_5042"/>
<feBlend mode="normal" in="SourceGraphic" in2="effect2_dropShadow_1396_5042" result="shape"/>
</filter>
<clipPath id="clip0_1396_5042">
<rect width="34.2857" height="34.2857" fill="white" transform="translate(12.4286 8.42853)"/>
</clipPath>
</defs>
</svg>
