<svg width="20" height="20" viewBox="0 0 20 20" fill="none" xmlns="http://www.w3.org/2000/svg">
<rect width="20" height="20" rx="6" fill="#007F1E"/>
<g clip-path="url(#clip0_1396_4994)">
<path d="M14.285 11.43L14.645 11.07C14.84 10.875 14.84 10.56 14.645 10.365L14.635 10.355C14.44 10.16 14.125 10.16 13.93 10.355L12.5 11.785L8.21499 7.49999L9.64499 6.06999C9.83999 5.87499 9.83999 5.55999 9.64499 5.36499L9.63499 5.35499C9.43999 5.15999 9.12499 5.15999 8.92999 5.35499L8.56999 5.71499L8.20999 5.35499C8.01499 5.15999 7.69499 5.15999 7.49999 5.35499L6.78499 6.06999L6.42499 5.70999C6.22999 5.51499 5.90499 5.51499 5.70999 5.70999C5.51499 5.90499 5.51499 6.22999 5.70999 6.42499L6.06999 6.78499L5.35499 7.49999C5.15999 7.69499 5.15999 8.00999 5.35499 8.20499L5.71499 8.56499L5.35499 8.92999C5.15999 9.12499 5.15999 9.43999 5.35499 9.63499L5.36499 9.64499C5.55999 9.83999 5.87499 9.83999 6.06999 9.64499L7.49999 8.21499L11.785 12.5L10.355 13.93C10.16 14.125 10.16 14.44 10.355 14.635L10.365 14.645C10.56 14.84 10.875 14.84 11.07 14.645L11.43 14.285L11.79 14.645C11.985 14.84 12.3 14.84 12.495 14.645L13.21 13.93L13.57 14.29C13.765 14.485 14.09 14.485 14.285 14.29C14.48 14.095 14.48 13.77 14.285 13.575L13.925 13.215L14.645 12.5C14.84 12.305 14.84 11.99 14.645 11.795L14.285 11.43Z" fill="white"/>
</g>
<defs>
<clipPath id="clip0_1396_4994">
<rect width="12" height="12" fill="white" transform="translate(4 4)"/>
</clipPath>
</defs>
</svg>
