<svg width="59" height="65" viewBox="0 0 59 65" fill="none" xmlns="http://www.w3.org/2000/svg">
<g filter="url(#filter0_dd_1396_5041)">
<path fill-rule="evenodd" clip-rule="evenodd" d="M13.4082 5C10.9736 5 9 6.97361 9 9.40817V41.7347C9 44.1693 10.9736 46.1429 13.4082 46.1429H25.6125L27.6627 49.6939C28.511 51.1633 30.6319 51.1633 31.4803 49.6939L33.5304 46.1429H45.7347C48.1693 46.1429 50.1429 44.1693 50.1429 41.7347V9.40816C50.1429 6.9736 48.1692 5 45.7347 5H13.4082Z" fill="#007F1E"/>
<g clip-path="url(#clip0_1396_5041)">
<path d="M41.8143 29.6571L42.8428 28.6285C43.4 28.0714 43.4 27.1714 42.8428 26.6142L42.8143 26.5857C42.2571 26.0285 41.3571 26.0285 40.8 26.5857L36.7143 30.6714L24.4714 18.4285L28.5571 14.3428C29.1143 13.7857 29.1143 12.8857 28.5571 12.3285L28.5285 12.2999C27.9714 11.7428 27.0714 11.7428 26.5143 12.2999L25.4857 13.3285L24.4571 12.2999C23.9 11.7428 22.9857 11.7428 22.4285 12.2999L20.3857 14.3428L19.3571 13.3142C18.8 12.7571 17.8714 12.7571 17.3143 13.3142C16.7571 13.8714 16.7571 14.7999 17.3143 15.3571L18.3428 16.3857L16.3 18.4285C15.7428 18.9857 15.7428 19.8857 16.3 20.4428L17.3285 21.4714L16.3 22.5142C15.7428 23.0714 15.7428 23.9714 16.3 24.5285L16.3285 24.5571C16.8857 25.1142 17.7857 25.1142 18.3428 24.5571L22.4285 20.4714L34.6714 32.7142L30.5857 36.7999C30.0285 37.3571 30.0285 38.2571 30.5857 38.8142L30.6143 38.8428C31.1714 39.3999 32.0714 39.3999 32.6285 38.8428L33.6571 37.8142L34.6857 38.8428C35.2428 39.3999 36.1428 39.3999 36.7 38.8428L38.7428 36.7999L39.7714 37.8285C40.3285 38.3857 41.2571 38.3857 41.8143 37.8285C42.3714 37.2714 42.3714 36.3428 41.8143 35.7857L40.7857 34.7571L42.8428 32.7142C43.4 32.1571 43.4 31.2571 42.8428 30.6999L41.8143 29.6571Z" fill="white"/>
</g>
</g>
<defs>
<filter id="filter0_dd_1396_5041" x="0.183673" y="0.591836" width="58.7755" height="65.6327" filterUnits="userSpaceOnUse" color-interpolation-filters="sRGB">
<feFlood flood-opacity="0" result="BackgroundImageFix"/>
<feColorMatrix in="SourceAlpha" type="matrix" values="0 0 0 0 0 0 0 0 0 0 0 0 0 0 0 0 0 0 127 0" result="hardAlpha"/>
<feOffset dy="4.40816"/>
<feGaussianBlur stdDeviation="4.40816"/>
<feColorMatrix type="matrix" values="0 0 0 0 0 0 0 0 0 0 0 0 0 0 0 0 0 0 0.24 0"/>
<feBlend mode="normal" in2="BackgroundImageFix" result="effect1_dropShadow_1396_5041"/>
<feColorMatrix in="SourceAlpha" type="matrix" values="0 0 0 0 0 0 0 0 0 0 0 0 0 0 0 0 0 0 127 0" result="hardAlpha"/>
<feOffset dy="4.40816"/>
<feGaussianBlur stdDeviation="4.40816"/>
<feColorMatrix type="matrix" values="0 0 0 0 0 0 0 0 0 0 0 0 0 0 0 0 0 0 0.04 0"/>
<feBlend mode="normal" in2="effect1_dropShadow_1396_5041" result="effect2_dropShadow_1396_5041"/>
<feBlend mode="normal" in="SourceGraphic" in2="effect2_dropShadow_1396_5041" result="shape"/>
</filter>
<clipPath id="clip0_1396_5041">
<rect width="34.2857" height="34.2857" fill="white" transform="translate(12.4285 8.42853)"/>
</clipPath>
</defs>
</svg>
