<svg width="20" height="20" viewBox="0 0 20 20" fill="none" xmlns="http://www.w3.org/2000/svg">
<rect width="20" height="20" rx="6" fill="#1766FF"/>
<g clip-path="url(#clip0_1396_5000)">
<path d="M8.775 12.225C8.675 12.325 8.67 12.5 8.785 12.59C9.57 13.19 10.7 13.13 11.415 12.415C12.13 11.7 12.19 10.57 11.59 9.785C11.5 9.67 11.325 9.67 11.225 9.775L8.775 12.225ZM13 5.005L7 5C6.445 5 6 5.445 6 6V14C6 14.555 6.445 15 7 15H13C13.555 15 14 14.555 14 14V6C14 5.445 13.555 5.005 13 5.005ZM9 6C9.275 6 9.5 6.225 9.5 6.5C9.5 6.775 9.275 7 9 7C8.725 7 8.5 6.775 8.5 6.5C8.5 6.225 8.725 6 9 6ZM7.5 6C7.775 6 8 6.225 8 6.5C8 6.775 7.775 7 7.5 7C7.225 7 7 6.775 7 6.5C7 6.225 7.225 6 7.5 6ZM10 14C8.345 14 7 12.655 7 11C7 9.345 8.345 8 10 8C11.655 8 13 9.345 13 11C13 12.655 11.655 14 10 14Z" fill="white"/>
</g>
<defs>
<clipPath id="clip0_1396_5000">
<rect width="12" height="12" fill="white" transform="translate(4 4)"/>
</clipPath>
</defs>
</svg>
