<svg width="50" height="54" viewBox="0 0 50 54" fill="none" xmlns="http://www.w3.org/2000/svg">
<g filter="url(#filter0_dd_1396_5032)">
<path fill-rule="evenodd" clip-rule="evenodd" d="M8.40816 2C5.9736 2 4 3.97361 4 6.40817V38.7347C4 41.1693 5.97361 43.1429 8.40817 43.1429H20.6125L22.6626 46.6939C23.511 48.1633 25.6319 48.1633 26.4802 46.6939L28.5304 43.1429H40.7347C43.1693 43.1429 45.1429 41.1693 45.1429 38.7347V6.40816C45.1429 3.9736 43.1692 2 40.7347 2H8.40816Z" fill="#1766FF"/>
<g clip-path="url(#clip0_1396_5032)">
<path d="M21.0714 28.9286C20.7857 29.2143 20.7714 29.7143 21.1 29.9715C23.3429 31.6858 26.5714 31.5143 28.6143 29.4715C30.6571 27.4286 30.8286 24.2001 29.1143 21.9572C28.8571 21.6286 28.3571 21.6286 28.0714 21.9286L21.0714 28.9286ZM33.1429 8.30005L16 8.28577C14.4143 8.28577 13.1429 9.5572 13.1429 11.1429V34.0001C13.1429 35.5858 14.4143 36.8572 16 36.8572H33.1429C34.7286 36.8572 36 35.5858 36 34.0001V11.1429C36 9.5572 34.7286 8.30005 33.1429 8.30005ZM21.7143 11.1429C22.5 11.1429 23.1429 11.7858 23.1429 12.5715C23.1429 13.3572 22.5 14.0001 21.7143 14.0001C20.9286 14.0001 20.2857 13.3572 20.2857 12.5715C20.2857 11.7858 20.9286 11.1429 21.7143 11.1429ZM17.4286 11.1429C18.2143 11.1429 18.8571 11.7858 18.8571 12.5715C18.8571 13.3572 18.2143 14.0001 17.4286 14.0001C16.6429 14.0001 16 13.3572 16 12.5715C16 11.7858 16.6429 11.1429 17.4286 11.1429ZM24.5714 34.0001C19.8429 34.0001 16 30.1572 16 25.4286C16 20.7001 19.8429 16.8572 24.5714 16.8572C29.3 16.8572 33.1429 20.7001 33.1429 25.4286C33.1429 30.1572 29.3 34.0001 24.5714 34.0001Z" fill="white"/>
</g>
</g>
<defs>
<filter id="filter0_dd_1396_5032" x="0" y="0" width="49.1429" height="56" filterUnits="userSpaceOnUse" color-interpolation-filters="sRGB">
<feFlood flood-opacity="0" result="BackgroundImageFix"/>
<feColorMatrix in="SourceAlpha" type="matrix" values="0 0 0 0 0 0 0 0 0 0 0 0 0 0 0 0 0 0 127 0" result="hardAlpha"/>
<feOffset dy="2"/>
<feGaussianBlur stdDeviation="2"/>
<feColorMatrix type="matrix" values="0 0 0 0 0 0 0 0 0 0 0 0 0 0 0 0 0 0 0.24 0"/>
<feBlend mode="normal" in2="BackgroundImageFix" result="effect1_dropShadow_1396_5032"/>
<feColorMatrix in="SourceAlpha" type="matrix" values="0 0 0 0 0 0 0 0 0 0 0 0 0 0 0 0 0 0 127 0" result="hardAlpha"/>
<feOffset dy="2"/>
<feGaussianBlur stdDeviation="2"/>
<feColorMatrix type="matrix" values="0 0 0 0 0 0 0 0 0 0 0 0 0 0 0 0 0 0 0.04 0"/>
<feBlend mode="normal" in2="effect1_dropShadow_1396_5032" result="effect2_dropShadow_1396_5032"/>
<feBlend mode="normal" in="SourceGraphic" in2="effect2_dropShadow_1396_5032" result="shape"/>
</filter>
<clipPath id="clip0_1396_5032">
<rect width="34.2857" height="34.2857" fill="white" transform="translate(7.42857 5.42853)"/>
</clipPath>
</defs>
</svg>
