<svg width="20" height="20" viewBox="0 0 20 20" fill="none" xmlns="http://www.w3.org/2000/svg">
  <rect width="20" height="20" rx="6" fill="#FF6347"/>
  <g clip-path="url(#clip0)">
    <path d="M5 5C5.27614 5 5.5 5.22386 5.5 5.5V12C5.5 12.2761 5.72386 12.5 6 12.5H6.5C6.77614 12.5 7 12.2761 7 12V5.5C7 5.22386 7.22386 5 7.5 5H8C8.27614 5 8.5 5.22386 8.5 5.5V12C8.5 12.2761 8.72386 12.5 9 12.5H9.5C9.77614 12.5 10 12.2761 10 12V5.5C10 5.22386 10.2239 5 10.5 5H11C11.2761 5 11.5 5.22386 11.5 5.5V12C11.5 12.2761 11.7239 12.5 12 12.5H12.5C12.7761 12.5 13 12.2761 13 12V5.5C13 5.22386 13.2239 5 13.5 5H14C14.2761 5 14.5 5.22386 14.5 5.5V12C14.5 12.2761 14.7239 12.5 15 12.5H15.5C15.7761 12.5 16 12.2761 16 12V5.5C16 5.22386 16.2239 5 16.5 5H17C17.2761 5 17.5 5.22386 17.5 5.5V14.5C17.5 14.7761 17.2761 15 17 15H5C4.72386 15 4.5 14.7761 4.5 14.5V5.5C4.5 5.22386 4.72386 5 5 5Z" fill="white"/>
  </g>
  <defs>
    <clipPath id="clip0">
      <rect width="12" height="12" fill="white" transform="translate(4 4)"/>
    </clipPath>
  </defs>
</svg>
