<svg width="59" height="65" viewBox="0 0 59 65" fill="none" xmlns="http://www.w3.org/2000/svg">
<g filter="url(#filter0_dd_2320_2418)">
<path fill-rule="evenodd" clip-rule="evenodd" d="M13.4082 5C10.9736 5 9 6.97361 9 9.40817V41.7347C9 44.1693 10.9736 46.1429 13.4082 46.1429H25.6117L27.662 49.694C28.5103 51.1634 30.6312 51.1634 31.4796 49.694L33.5298 46.1429H45.7347C48.1693 46.1429 50.1429 44.1693 50.1429 41.7347V9.40816C50.1429 6.9736 48.1692 5 45.7347 5H13.4082Z" fill="#FF6A00"/>
<g clip-path="url(#clip0_2320_2418)">
<path d="M35.2853 17.0004V25.5718C35.2853 27.1433 36.571 28.429 38.1424 28.429H39.571V38.429C39.571 39.2147 40.2139 39.8576 40.9996 39.8576C41.7853 39.8576 42.4281 39.2147 42.4281 38.429V12.9004C42.4281 11.9718 41.5567 11.2861 40.6567 11.5004C37.571 12.2576 35.2853 14.8718 35.2853 17.0004ZM28.1424 21.2861H25.2853V12.7147C25.2853 11.929 24.6424 11.2861 23.8567 11.2861C23.071 11.2861 22.4282 11.929 22.4282 12.7147V21.2861H19.571V12.7147C19.571 11.929 18.9282 11.2861 18.1424 11.2861C17.3567 11.2861 16.7139 11.929 16.7139 12.7147V21.2861C16.7139 24.4433 19.271 27.0004 22.4282 27.0004V38.429C22.4282 39.2147 23.071 39.8576 23.8567 39.8576C24.6424 39.8576 25.2853 39.2147 25.2853 38.429V27.0004C28.4424 27.0004 30.9996 24.4433 30.9996 21.2861V12.7147C30.9996 11.929 30.3567 11.2861 29.571 11.2861C28.7853 11.2861 28.1424 11.929 28.1424 12.7147V21.2861Z" fill="white"/>
</g>
</g>
<defs>
<filter id="filter0_dd_2320_2418" x="0.183673" y="0.591836" width="58.7752" height="65.6327" filterUnits="userSpaceOnUse" color-interpolation-filters="sRGB">
<feFlood flood-opacity="0" result="BackgroundImageFix"/>
<feColorMatrix in="SourceAlpha" type="matrix" values="0 0 0 0 0 0 0 0 0 0 0 0 0 0 0 0 0 0 127 0" result="hardAlpha"/>
<feOffset dy="4.40816"/>
<feGaussianBlur stdDeviation="4.40816"/>
<feColorMatrix type="matrix" values="0 0 0 0 0 0 0 0 0 0 0 0 0 0 0 0 0 0 0.24 0"/>
<feBlend mode="normal" in2="BackgroundImageFix" result="effect1_dropShadow_2320_2418"/>
<feColorMatrix in="SourceAlpha" type="matrix" values="0 0 0 0 0 0 0 0 0 0 0 0 0 0 0 0 0 0 127 0" result="hardAlpha"/>
<feOffset dy="4.40816"/>
<feGaussianBlur stdDeviation="4.40816"/>
<feColorMatrix type="matrix" values="0 0 0 0 0 0 0 0 0 0 0 0 0 0 0 0 0 0 0.04 0"/>
<feBlend mode="normal" in2="effect1_dropShadow_2320_2418" result="effect2_dropShadow_2320_2418"/>
<feBlend mode="normal" in="SourceGraphic" in2="effect2_dropShadow_2320_2418" result="shape"/>
</filter>
<clipPath id="clip0_2320_2418">
<rect width="34.2857" height="34.2857" fill="white" transform="translate(12.4287 8.42871)"/>
</clipPath>
</defs>
</svg>
