<svg width="20" height="20" viewBox="0 0 20 20" fill="none" xmlns="http://www.w3.org/2000/svg">
<rect width="20" height="20" rx="6" fill="#FF6A00"/>
<g clip-path="url(#clip0_2320_2433)">
<path d="M12 7V10C12 10.55 12.45 11 13 11H13.5V14.5C13.5 14.775 13.725 15 14 15C14.275 15 14.5 14.775 14.5 14.5V5.565C14.5 5.24 14.195 5 13.88 5.075C12.8 5.34 12 6.255 12 7ZM9.5 8.5H8.5V5.5C8.5 5.225 8.275 5 8 5C7.725 5 7.5 5.225 7.5 5.5V8.5H6.5V5.5C6.5 5.225 6.275 5 6 5C5.725 5 5.5 5.225 5.5 5.5V8.5C5.5 9.605 6.395 10.5 7.5 10.5V14.5C7.5 14.775 7.725 15 8 15C8.275 15 8.5 14.775 8.5 14.5V10.5C9.605 10.5 10.5 9.605 10.5 8.5V5.5C10.5 5.225 10.275 5 10 5C9.725 5 9.5 5.225 9.5 5.5V8.5Z" fill="white"/>
</g>
<defs>
<clipPath id="clip0_2320_2433">
<rect width="12" height="12" fill="white" transform="translate(4 4)"/>
</clipPath>
</defs>
</svg>
