<svg width="59" height="65" viewBox="0 0 59 65" fill="none" xmlns="http://www.w3.org/2000/svg">
<g filter="url(#filter0_dd_1396_5040)">
<path fill-rule="evenodd" clip-rule="evenodd" d="M13.4082 5C10.9736 5 9 6.97361 9 9.40817V41.7347C9 44.1693 10.9736 46.1429 13.4082 46.1429H25.6125L27.6626 49.6939C28.511 51.1633 30.6319 51.1633 31.4802 49.6939L33.5304 46.1429H45.7347C48.1693 46.1429 50.1429 44.1693 50.1429 41.7347V9.40816C50.1429 6.9736 48.1692 5 45.7347 5H13.4082Z" fill="#FF6347"/>
<g clip-path="url(#clip0_1396_5040)">
<path d="M19 20H23V34H25V20H29V34H31V20H35V34H37V20H41V34H43V20H47V34H45.4C44.2694 35.9984 42.4823 37.658 40.1826 38.8003C37.8829 39.9426 35.1705 40.5252 32.4572 40.4756C29.7439 40.426 27.0953 39.7451 24.775 38.4911C22.4547 37.2372 20.5478 35.4466 19.2 33.3V20H19Z" fill="white"/>
</g>
</g>
<defs>
<filter id="filter0_dd_1396_5040" x="0.183673" y="0.591836" width="58.7755" height="65.6327" filterUnits="userSpaceOnUse" color-interpolation-filters="sRGB">
<feFlood flood-opacity="0" result="BackgroundImageFix"/>
<feColorMatrix in="SourceAlpha" type="matrix" values="0 0 0 0 0 0 0 0 0 0 0 0 0 0 0 0 0 0 127 0" result="hardAlpha"/>
<feOffset dy="4.40816"/>
<feGaussianBlur stdDeviation="4.40816"/>
<feColorMatrix type="matrix" values="0 0 0 0 0 0 0 0 0 0 0 0 0 0 0 0 0 0 0.24 0"/>
<feBlend mode="normal" in2="BackgroundImageFix" result="effect1_dropShadow_1396_5040"/>
<feColorMatrix in="SourceAlpha" type="matrix" values="0 0 0 0 0 0 0 0 0 0 0 0 0 0 0 0 0 0 127 0" result="hardAlpha"/>
<feOffset dy="4.40816"/>
<feGaussianBlur stdDeviation="4.40816"/>
<feColorMatrix type="matrix" values="0 0 0 0 0 0 0 0 0 0 0 0 0 0 0 0 0 0 0.04 0"/>
<feBlend mode="normal" in2="effect1_dropShadow_1396_5040" result="effect2_dropShadow_1396_5040"/>
<feBlend mode="normal" in="SourceGraphic" in2="effect2_dropShadow_1396_5040" result="shape"/>
</filter>
<clipPath id="clip0_1396_5040">
<rect width="34.2857" height="34.2857" fill="white" transform="translate(12.4286 8.42853)"/>
</clipPath>
</defs>
</svg>
