<svg width="20" height="20" viewBox="0 0 20 20" fill="none" xmlns="http://www.w3.org/2000/svg">
<rect width="20" height="20" rx="6" fill="#C800C0"/>
<g clip-path="url(#clip0_1396_5012)">
<path d="M6.50001 10.59V11.995C6.50001 12.36 6.70001 12.7 7.02001 12.875L9.52001 14.24C9.82001 14.405 10.18 14.405 10.48 14.24L12.98 12.875C13.3 12.7 13.5 12.36 13.5 11.995V10.59L10.48 12.24C10.18 12.405 9.82001 12.405 9.52001 12.24L6.50001 10.59ZM9.52001 5.76001L5.30501 8.06001C4.96001 8.25001 4.96001 8.75001 5.30501 8.94001L9.52001 11.24C9.82001 11.405 10.18 11.405 10.48 11.24L14.5 9.04501V12C14.5 12.275 14.725 12.5 15 12.5C15.275 12.5 15.5 12.275 15.5 12V8.79501C15.5 8.61001 15.4 8.44501 15.24 8.35501L10.48 5.76001C10.18 5.60001 9.82001 5.60001 9.52001 5.76001Z" fill="white"/>
</g>
<defs>
<clipPath id="clip0_1396_5012">
<rect width="12" height="12" fill="white" transform="translate(4 4)"/>
</clipPath>
</defs>
</svg>
